<svg width="16" height="16" viewBox="0 0 16 16" fill="none" xmlns="http://www.w3.org/2000/svg">
<path d="M5.99967 2.66675H3.66634C3.48224 2.66675 3.33301 2.81599 3.33301 3.00008V14.3334C3.33301 14.5175 3.48224 14.6667 3.66634 14.6667H12.9997C13.1838 14.6667 13.333 14.5175 13.333 14.3334V3.00008C13.333 2.81599 13.1838 2.66675 12.9997 2.66675H10.6663" stroke="#333333"/>
<path d="M6 4.33333V2.66667H7.31683C7.32593 2.66667 7.33333 2.65928 7.33333 2.65017V2C7.33333 1.44772 7.78103 1 8.33333 1C8.88563 1 9.33333 1.44772 9.33333 2V2.65017C9.33333 2.65928 9.34073 2.66667 9.34983 2.66667H10.6667V4.33333C10.6667 4.51743 10.5174 4.66667 10.3333 4.66667H6.33333C6.14923 4.66667 6 4.51743 6 4.33333Z" stroke="#333333"/>
</svg>
