<svg width="54" height="54" viewBox="0 0 54 54" fill="none" xmlns="http://www.w3.org/2000/svg">
<rect width="54" height="54" fill="#F5F5F5"/>
<path d="M27 26C33.0751 26 38 21.0751 38 15C38 8.92487 33.0751 4 27 4C20.9249 4 16 8.92487 16 15C16 21.0751 20.9249 26 27 26Z" fill="#CCCCCC"/>
<path fill-rule="evenodd" clip-rule="evenodd" d="M26.9487 28C12.6177 28 1 39.6177 1 53.9487L2.99606 53.9487L4.99211 53.9487H48.9053L50.9014 53.9487L52.8975 53.9487C52.8975 39.6177 41.2798 28 26.9487 28Z" fill="#CCCCCC"/>
<path d="M26.4997 49.5833L30.9163 44.0624L26.4997 29.7083L22.083 44.0624L26.4997 49.5833Z" fill="#F5F5F5"/>
</svg>
